<?xml version="1.0" encoding="utf-8"?>
<!-- Generator: Adobe Illustrator 23.1.0, SVG Export Plug-In . SVG Version: 6.00 Build 0)  -->
<svg version="1.1" xmlns="http://www.w3.org/2000/svg" xmlns:xlink="http://www.w3.org/1999/xlink" x="0px" y="0px"
	 viewBox="0 0 800 800" style="enable-background:new 0 0 800 800;" xml:space="preserve">
<style type="text/css">
	.st0{fill:#F3F3F3;}
	.st1{fill:#FFFFFF;}
	.st2{fill:#838383;}
	.st3{fill:none;stroke:#838383;stroke-width:6;stroke-linecap:round;stroke-linejoin:round;stroke-miterlimit:10;}
</style>
<g id="暂无内容">
</g>
<g id="图层_2">
</g>
<g id="图层_3">
	<g>
		<g>
			<g>
				<g>
					<circle class="st0" cx="672.18" cy="171.47" r="19.78"/>
				</g>
			</g>
			<g>
				<g>
					<circle class="st0" cx="104.06" cy="623.27" r="19.78"/>
				</g>
			</g>
			<g>
				<g>
					<path class="st0" d="M225.19,685.27c-7.38,0-13.38-6-13.38-13.38c0-7.38,6-13.38,13.38-13.38c7.38,0,13.38,6,13.38,13.38
						C238.56,679.27,232.56,685.27,225.19,685.27z M225.19,664.94c-3.83,0-6.95,3.12-6.95,6.95c0,3.83,3.12,6.95,6.95,6.95
						c3.83,0,6.95-3.12,6.95-6.95C232.14,668.06,229.02,664.94,225.19,664.94z"/>
				</g>
			</g>
			<g>
				<g>
					<path class="st0" d="M603.62,112.13h-19.98V92.16c0-3.66-2.96-6.62-6.62-6.62c-3.66,0-6.62,2.96-6.62,6.62v19.98h-19.98
						c-3.66,0-6.62,2.96-6.62,6.62c0,3.66,2.96,6.62,6.62,6.62h19.98v19.98c0,3.66,2.96,6.62,6.62,6.62c3.66,0,6.62-2.96,6.62-6.62
						v-19.98h19.98c3.66,0,6.62-2.96,6.62-6.62C610.23,115.1,607.27,112.13,603.62,112.13z"/>
				</g>
			</g>
			<g>
				<g>
					<path class="st0" d="M661.19,689.17h-14.84v-14.84c0-3.04-2.47-5.51-5.51-5.51c-3.04,0-5.51,2.47-5.51,5.51v14.84h-14.84
						c-3.04,0-5.51,2.47-5.51,5.51s2.47,5.51,5.51,5.51h14.84v14.84c0,3.04,2.47,5.51,5.51,5.51c3.04,0,5.51-2.47,5.51-5.51v-14.84
						h14.84c3.04,0,5.51-2.47,5.51-5.51S664.23,689.17,661.19,689.17z"/>
				</g>
			</g>
			<g>
				<g>
					<path class="st0" d="M126.13,127.58c8.7,8.7,22.82,8.7,31.52,0l0,0c8.7-8.7,8.7-22.82,0-31.52l-6.66-6.66
						c-8.7-8.7-22.82-8.7-31.52,0h0c-8.7,8.7-8.7,22.82,0,31.52L126.13,127.58z"/>
				</g>
			</g>
			<g>
				<g>
					<path class="st0" d="M240.85,119.52c3.97,3.97,10.41,3.97,14.38,0c3.97-3.97,3.97-10.41,0-14.38l-10.01-10.01
						c-3.97-3.97-10.41-3.97-14.38,0c-3.97,3.97-3.97,10.41,0,14.38L240.85,119.52z"/>
				</g>
			</g>
			<g>
				<g>
					<path class="st0" d="M89.78,320.24c3.97,3.97,10.41,3.97,14.38,0h0c3.97-3.97,3.97-10.41,0-14.38l-10.01-10.01
						c-3.97-3.97-10.41-3.97-14.38,0c-3.97,3.97-3.97,10.41,0,14.38L89.78,320.24z"/>
				</g>
			</g>
			<g>
				<g>
					<path class="st0" d="M617.74,627.71c-3.97-3.97-10.41-3.97-14.38,0c-3.97,3.97-3.97,10.41,0,14.38l10.01,10.01
						c3.97,3.97,10.41,3.97,14.38,0c3.97-3.97,3.97-10.41,0-14.38L617.74,627.71z"/>
				</g>
			</g>
			<g>
				<g>
					<circle class="st0" cx="705.35" cy="636.2" r="32.77"/>
				</g>
			</g>
			<g>
				<g>
					<path class="st0" d="M706.01,484.24l-31.51-31.51l-19.97-21.27c-5.17-5.43-5.24-13.94-0.16-19.46v0
						c5.55-6.03,15.04-6.14,20.72-0.23l4.04,4.41l9.32,9.32c5.41,5.41,14.29,5.82,19.8,0.51c5.61-5.41,5.68-14.35,0.19-19.84
						l-18.63-18.63c-6.88-6.88-11.36-15.82-12.66-25.46c-18.22-135.39-134.2-239.79-274.58-239.79c-4.79,0-9.55,0.13-14.28,0.37
						c-5.11,0.26-10.1-1.61-13.71-5.23l-19.14-19.14c-8.55-8.55-22.47-9.18-31.32-0.94c-9.29,8.65-9.48,23.19-0.59,32.09l3.34,3.34
						l10.41,10.94c6.54,6.92,5.57,18-2.08,23.68c-6.51,4.83-14.68,3.26-20.19-2.69l-20.69-20.46l-18.04-18.04
						c-3.83-3.83-10.06-4.28-14.13-0.71c-4.46,3.92-4.62,10.71-0.49,14.84l13.14,13.14l8.56,8.24c8.7,8.52,8.89,21.8,0.24,30.36l0,0
						c-8.59,8.49-22.45,8.38-30.89-0.26l-14.74-15.33l-35.31-35.31c-8.7-8.7-22.82-8.7-31.52,0h0c-8.7,8.7-8.7,22.82,0,31.52
						l25.61,25.69l8.98,8.38c8.49,8.43,8.69,22.09,0.45,30.76l0,0c-8.82,9.29-23.69,9.11-32.28-0.4l-4.96-5.44l-15.36-15.44
						c-12.62-12.62-33.2-13.4-46.16-1.12c-13.45,12.73-13.67,33.97-0.66,46.98l37.34,37.33l17.8,17.59
						c6.71,6.64,6.5,17.55-0.46,23.93l0,0c-6.58,6.03-16.76,5.75-22.99-0.63l-5.35-5.55l-8.11-8.11c-3.97-3.97-10.41-3.97-14.38,0h0
						c-5.06,4.2-3.69,10.69,0.06,14.44l17.79,17.79l36.99,36.09c6.38,6.22,6.41,16.47,0.08,22.73l0,0
						c-6.18,6.11-16.12,6.15-22.34,0.08l-17.67-17.24L99.53,374.6c-5.41-5.41-14.29-5.82-19.8-0.51
						c-5.61,5.41-5.68,14.35-0.19,19.84l43.89,43.89c3.55,3.55,5.91,8.11,6.84,13.05c23.49,124.93,130.8,220.27,261.3,225.36
						c7.2,0.28,14.06,3.16,19.28,8.14c8.46,8.08,20.27,19.34,20.27,19.34c8.55,8.55,22.47,9.18,31.32,0.94
						c9.29-8.65,9.48-23.19,0.59-32.09l-2.26-2.26l-9.81-10.24c-5.59-6.06-5.03-15.55,1.23-20.92l0,0
						c5.93-5.08,14.81-4.58,20.13,1.13l20.22,21.22l22.02,22.02c8.9,8.89,23.44,8.7,32.09-0.58c8.24-8.84,7.6-22.77-0.94-31.32
						l-9.5-9.5c0,0-3.02-3.11-6.89-7.09c-9.03-9.28-8.71-24.16,0.7-33.05l0.48-0.45c9.02-8.52,23.15-8.43,32.07,0.2l13.82,13.38
						l5.91,5.91c3.83,3.83,10.07,4.28,14.13,0.71c4.46-3.92,4.62-10.71,0.49-14.84l-5.15-5.15c-0.94,0.44-20.83-20.04-32.63-32.32
						c-4.75-4.94-4.56-12.79,0.41-17.5l0,0c4.95-4.69,12.77-4.47,17.45,0.48l31.03,32.82l14.15,14.15
						c12.62,12.62,33.19,13.4,46.16,1.13c13.45-12.73,13.67-33.97,0.66-46.98l-22.57-22.57l-11.4-12.43
						c-5.57-6.02-5.32-15.38,0.56-21.1v0c6.11-5.94,15.92-5.64,21.67,0.65l2.92,3.4l14.64,14.65c8.9,8.9,23.44,8.7,32.09-0.58
						C715.19,506.71,714.55,492.79,706.01,484.24z"/>
				</g>
			</g>
			<g>
				<g>
					<path class="st1" d="M433.5,203.26h-14.84v-14.84c0-3.04-2.47-5.51-5.51-5.51c-3.04,0-5.51,2.47-5.51,5.51v14.84h-14.84
						c-3.04,0-5.51,2.47-5.51,5.51s2.47,5.51,5.51,5.51h14.84v14.84c0,3.04,2.47,5.51,5.51,5.51c3.04,0,5.51-2.47,5.51-5.51v-14.84
						h14.84c3.04,0,5.51-2.47,5.51-5.51S436.54,203.26,433.5,203.26z"/>
				</g>
			</g>
			<g>
				<g>
					<path class="st1" d="M589.26,421.8c-7.38,0-13.38-6-13.38-13.38s6-13.38,13.38-13.38c7.38,0,13.38,6,13.38,13.38
						S596.63,421.8,589.26,421.8z M589.26,401.47c-3.83,0-6.95,3.12-6.95,6.95c0,3.83,3.12,6.95,6.95,6.95
						c3.83,0,6.95-3.12,6.95-6.95C596.21,404.59,593.09,401.47,589.26,401.47z"/>
				</g>
			</g>
			<g>
				<g>
					<path class="st1" d="M226.61,523.84c-7.38,0-13.38-6-13.38-13.38s6-13.38,13.38-13.38c7.38,0,13.38,6,13.38,13.38
						S233.98,523.84,226.61,523.84z M226.61,503.51c-3.83,0-6.95,3.12-6.95,6.95c0,3.83,3.12,6.95,6.95,6.95
						c3.83,0,6.95-3.12,6.95-6.95C233.56,506.63,230.44,503.51,226.61,503.51z"/>
				</g>
			</g>
		</g>
		<g>
			<g>
				<g>
					<path class="st1" d="M559.69,332.22c0-79.6-64.53-144.14-144.14-144.14s-144.14,64.53-144.14,144.14
						c0,77.19,58.37,162.87,136.72,209.24c4.54,2.69,10.2,2.6,14.65-0.23C501.53,491.2,559.69,409.48,559.69,332.22z"/>
				</g>
			</g>
			<g>
				<g>
					<path class="st1" d="M577.64,470.32h-47.86c-27.7,37.52-64.29,71.39-105.76,97.74c-5.19,3.3-11.8,3.43-17.1,0.3
						c-41.96-24.83-79.02-59.3-106.89-98.04h-52.7l-44.76,83.76c-10.07,18.85,3.59,41.64,24.96,41.64H598.9
						c21.54,0,35.19-23.11,24.78-41.97L577.64,470.32z"/>
				</g>
			</g>
			<g>
				<g>
					<path class="st2" d="M415.28,546.43c-2.99,0-5.98-0.79-8.67-2.38c-81.37-48.16-138.19-135.26-138.19-211.82
						c0-81.13,66-147.14,147.14-147.14s147.14,66.01,147.14,147.14c0,37.69-13.63,77.94-39.43,116.39
						c-24.74,36.88-58.93,69.78-98.86,95.16C421.6,545.54,418.44,546.43,415.28,546.43z M415.56,191.08
						c-77.82,0-141.14,63.31-141.14,141.14c0,74.55,55.62,159.53,135.25,206.66c3.58,2.12,8,2.05,11.52-0.18
						c82.32-52.3,135.51-133.35,135.51-206.48C556.69,254.4,493.38,191.08,415.56,191.08z"/>
				</g>
			</g>
			<g>
				<g>
					<path class="st2" d="M598.9,598.73H227.54c-11.1,0-21.14-5.69-26.85-15.21c-5.71-9.52-5.99-21.05-0.76-30.85l44.76-83.76
						c0.52-0.98,1.54-1.59,2.65-1.59h52.7c0.97,0,1.87,0.46,2.44,1.25c28.26,39.29,64.91,72.91,105.98,97.21
						c4.34,2.57,9.69,2.47,13.96-0.25c41.1-26.11,77.39-59.65,104.96-96.99c0.57-0.77,1.46-1.22,2.41-1.22h47.86
						c1.09,0,2.1,0.59,2.63,1.55l46.04,83.43c5.41,9.8,5.24,21.4-0.45,31.03C620.17,592.98,610.09,598.73,598.9,598.73z
						 M249.14,473.32l-43.92,82.18c-4.23,7.92-4,17.24,0.62,24.93c4.61,7.7,12.73,12.29,21.7,12.29H598.9
						c9.04,0,17.19-4.65,21.79-12.44c4.6-7.79,4.73-17.17,0.36-25.09l-45.18-81.88h-44.58c-27.89,37.44-64.4,71.05-105.66,97.27
						c-6.19,3.93-13.95,4.07-20.24,0.35c-41.34-24.46-78.28-58.2-106.89-97.62H249.14z"/>
				</g>
			</g>
			<g>
				<g>
					<path class="st2" d="M415.56,390.2c-31.97,0-57.98-26.01-57.98-57.98s26.01-57.98,57.98-57.98c31.97,0,57.98,26.01,57.98,57.98
						S447.53,390.2,415.56,390.2z M415.56,280.24c-28.66,0-51.98,23.32-51.98,51.98s23.32,51.98,51.98,51.98
						c28.66,0,51.98-23.32,51.98-51.98S444.22,280.24,415.56,280.24z"/>
				</g>
			</g>
		</g>
	</g>
</g>
<g id="图层_4">
</g>
<g id="图层_5">
</g>
<g id="图层_6">
</g>
<g id="图层_7">
</g>
</svg>
