<?xml version="1.0" standalone="no"?><!DOCTYPE svg PUBLIC "-//W3C//DTD SVG 1.1//EN" "http://www.w3.org/Graphics/SVG/1.1/DTD/svg11.dtd"><svg t="1659582727548" class="icon" viewBox="0 0 1035 1024" version="1.1" xmlns="http://www.w3.org/2000/svg" p-id="1077" width="32.34375" height="32" xmlns:xlink="http://www.w3.org/1999/xlink"><defs><style type="text/css">@font-face { font-family: feedback-iconfont; src: url("//at.alicdn.com/t/font_1031158_u69w8yhxdu.woff2?t=1630033759944") format("woff2"), url("//at.alicdn.com/t/font_1031158_u69w8yhxdu.woff?t=1630033759944") format("woff"), url("//at.alicdn.com/t/font_1031158_u69w8yhxdu.ttf?t=1630033759944") format("truetype"); }
</style></defs><path d="M523.391944 784.864544a53.864504 53.864504 0 0 1-42.600186-20.933125c-33.122841-37.239263-290.957672-330.973128-290.957672-445.913853C189.834086 142.670734 337.54664 0.03191 519.11597 0.03191s329.313795 142.638824 329.313795 317.985656c0 108.782047-251.101768 408.897962-282.309995 445.754302a53.960235 53.960235 0 0 1-42.727826 21.092676zM519.11597 52.332812c-152.754374 0-277.044803 119.216699-277.044803 265.748574 0 72.276719 170.783666 291.053403 278.448854 411.993256l1.627423 2.010346a1.340231 1.340231 0 0 0 1.2445 0.638205 1.340231 1.340231 0 0 0 1.212589-0.638205l1.148769-1.435961c104.537984-123.428852 270.439381-344.630715 270.439381-412.567641 0-146.627605-124.290429-265.748574-277.076713-265.748574z" fill="#9e1068" p-id="1078"></path><path d="M519.11597 475.111733a163.157116 163.157116 0 1 1 163.157116-163.157115 163.348577 163.348577 0 0 1-163.157116 163.157115z m0-273.566585a110.40947 110.40947 0 1 0 110.40947 110.40947 110.537111 110.537111 0 0 0-110.40947-110.40947z" fill="#9e1068" p-id="1079"></path><path d="M697.494276 1023.999968a76.265501 76.265501 0 0 1-38.643315-10.466562l-294.563531-172.060076a24.507073 24.507073 0 0 0-22.87965-0.925397l-207.416634 99.623805a76.584603 76.584603 0 0 1-109.675534-64.107695L0.223372 504.852088a76.297411 76.297411 0 0 1 37.430725-70.904579l85.519473-50.673479a26.134496 26.134496 0 0 1 35.803303 9.158242 26.166406 26.166406 0 0 1-9.158243 35.803302l-85.487563 50.673479a24.219881 24.219881 0 0 0-11.902524 22.560548l24.06033 371.211955a24.379432 24.379432 0 0 0 34.909815 20.390651l207.416634-99.623805a76.584603 76.584603 0 0 1 71.861886 2.903832l294.659262 172.060076a24.475163 24.475163 0 0 0 24.634714 0l260.547203-152.818194a24.826176 24.826176 0 0 0 12.253536-21.411779V402.484001a25.815393 25.815393 0 0 0-6.669242-17.83783 24.347522 24.347522 0 0 0-22.975381-7.052166l-30.793393 6.796884a26.166406 26.166406 0 0 1-31.144405-19.880087 26.134496 26.134496 0 0 1 19.911997-31.144405l30.793392-6.796884a76.584603 76.584603 0 0 1 93.146024 74.86145v392.974746a76.903706 76.903706 0 0 1-37.877468 66.118041l-260.866306 152.945835a76.584603 76.584603 0 0 1-38.802865 10.530383z" fill="#9e1068" p-id="1080"></path></svg>